<?xml version="1.0" encoding="utf-8"?>
<!-- Generator: Adobe Illustrator 24.0.0, SVG Export Plug-In . SVG Version: 6.00 Build 0)  -->
<svg version="1.1" id="图层_1" xmlns="http://www.w3.org/2000/svg" xmlns:xlink="http://www.w3.org/1999/xlink" x="0px" y="0px"
	 viewBox="0 0 512 512" style="enable-background:new 0 0 512 512;" xml:space="preserve">
<style type="text/css">
	.st0{fill:#00A99D;}
	.st1{fill:#FFFFFF;}
</style>
<g>
	<g>
		<path class="st0" d="M465.89-0.46H46.98c-25.66,0-46.55,20.87-46.55,46.55V465c0,25.67,20.89,46.55,46.55,46.55h418.91
			c25.66,0,46.55-20.87,46.55-46.55V46.09C512.44,20.42,491.55-0.46,465.89-0.46z"/>
		<path class="st1" d="M384,376c0,4.42-4.09,8-9.14,8H320c-5.05,0-9.14-3.58-9.14-8V247.54l-49.54,30.96
			c-3.18,1.98-7.46,1.98-10.64,0l-49.54-30.96V376c0,4.42-4.09,8-9.14,8h-54.86c-5.05,0-9.14-3.58-9.14-8V135.99
			c0-3.05,1.98-5.83,5.11-7.18c3.14-1.33,6.86-1.02,9.61,0.84L256,205.9l113.29-76.25c2.75-1.85,6.48-2.16,9.61-0.84
			c3.13,1.35,5.11,4.13,5.11,7.18L384,376L384,376z"/>
	</g>
</g>
</svg>
