<?xml version="1.0" encoding="utf-8"?>
<!-- Generator: Adobe Illustrator 24.0.0, SVG Export Plug-In . SVG Version: 6.00 Build 0)  -->
<svg version="1.1" id="图层_1" xmlns="http://www.w3.org/2000/svg" xmlns:xlink="http://www.w3.org/1999/xlink" x="0px" y="0px"
	 viewBox="0 0 196 128" style="enable-background:new 0 0 196 128;" xml:space="preserve">
<style type="text/css">
	.st0{clip-path:url(#SVGID_3_);}
	.st1{fill:#FFFFFF;}
	.st2{fill:#D9DADB;}
	.st3{fill:#8ECCEE;}
	.st4{fill:none;stroke:#666666;stroke-width:0.5;stroke-miterlimit:10;}
</style>
<g>
	<g>
		<g>
			<defs>
				<path id="SVGID_2_" d="M194,128H2c-1.1,0-2-1-2-2.2V2.2C0,1,0.9,0,2,0H194c1.1,0,2,1,2,2.2v123.6C196,127,195.1,128,194,128z"/>
			</defs>
			<clipPath id="SVGID_3_">
				<use xlink:href="#SVGID_2_"  style="overflow:visible;"/>
			</clipPath>
			<g class="st0">
				<rect class="st1" width="196" height="128"/>
				<rect x="162.9" y="4.4" class="st2" width="27.6" height="6.2"/>
				<rect x="5.5" y="4.1" class="st2" width="6.1" height="6.7"/>
				<rect y="14.8" class="st3" width="196" height="66.7"/>
				<rect x="104" y="87.7" class="st2" width="84.9" height="4.8"/>
				<rect x="104" y="104.4" class="st2" width="84.9" height="4.8"/>
				<rect x="104" y="113.2" class="st2" width="84.9" height="4.8"/>
				<rect x="104" y="96" class="st2" width="84.9" height="4.8"/>
				<rect x="104" y="87.7" class="st2" width="84.9" height="4.8"/>
				<rect x="5.5" y="86.9" class="st2" width="90.7" height="33.7"/>
			</g>
		</g>
	</g>
	<g>
		<path id="SVGID_1_" class="st4" d="M194,128H2c-1.1,0-2-1-2-2.2V2.2C0,1,0.9,0,2,0H194c1.1,0,2,1,2,2.2v123.6
			C196,127,195.1,128,194,128z"/>
	</g>
</g>
</svg>
