<?xml version="1.0" encoding="utf-8"?>
<!-- Generator: Adobe Illustrator 24.0.0, SVG Export Plug-In . SVG Version: 6.00 Build 0)  -->
<svg version="1.1" id="图层_1" xmlns="http://www.w3.org/2000/svg" xmlns:xlink="http://www.w3.org/1999/xlink" x="0px" y="0px"
	 viewBox="0 0 256 256" style="enable-background:new 0 0 256 256;" xml:space="preserve">
<style type="text/css">
	.st0{clip-path:url(#SVGID_3_);}
	.st1{fill:#FFFFFF;}
	.st2{fill:#D9DADB;}
	.st3{fill:#4caf50;}
	.st4{fill:none;stroke:#666666;stroke-width:0.5;stroke-miterlimit:10;}
	.st5{fill:none;stroke:#FFFFFF;stroke-miterlimit:10;}
	.st6{fill:none;stroke:#FFFFFF;stroke-linecap:round;stroke-linejoin:round;stroke-miterlimit:10;}
</style>
<g>
	<g>
		<defs>
			<path id="SVGID_2_" d="M222,185.6H34c-1.1,0-2-0.9-2-2V72.4c0-1.1,0.9-2,2-2h188c1.1,0,2,0.9,2,2v111.2
				C224,184.7,223.1,185.6,222,185.6z"/>
		</defs>
		<clipPath id="SVGID_3_">
			<use xlink:href="#SVGID_2_"  style="overflow:visible;"/>
		</clipPath>
		<g class="st0">
			<rect x="32" y="70.4" class="st1" width="192" height="115.2"/>
			<rect x="191.6" y="74.4" class="st2" width="27" height="5.6"/>
			<rect x="37.4" y="74.1" class="st2" width="6" height="6"/>
			<rect x="32" y="83.7" class="st3" width="192" height="60"/>
			<rect x="133.9" y="149.3" class="st2" width="83.2" height="4.3"/>
			<rect x="133.9" y="164.4" class="st2" width="83.2" height="4.3"/>
			<rect x="133.9" y="172.3" class="st2" width="83.2" height="4.3"/>
			<rect x="133.9" y="156.8" class="st2" width="83.2" height="4.3"/>
			<rect x="133.9" y="149.3" class="st2" width="83.2" height="4.3"/>
			<rect x="37.4" y="148.6" class="st2" width="88.8" height="30.3"/>
		</g>
	</g>
	<g>
		<path id="SVGID_1_" class="st4" d="M222,185.6H34c-1.1,0-2-0.9-2-2V72.4c0-1.1,0.9-2,2-2h188c1.1,0,2,0.9,2,2v111.2
			C224,184.7,223.1,185.6,222,185.6z"/>
	</g>
</g>
<circle class="st5" cx="128" cy="113.5" r="7.5"/>
<polyline class="st6" points="124.6,113.6 126.8,115.8 131.4,111.2 "/>
</svg>
